<?xml version="1.0" ?><svg height="48" viewBox="0 0 48 48" width="48" xmlns="http://www.w3.org/2000/svg" xmlns:xlink="http://www.w3.org/1999/xlink"><defs><path d="M0 0h48v48H0z" id="a"/></defs><clipPath id="b"><use overflow="visible" xlink:href="#a"/></clipPath><path clip-path="url(#b)" d="M42 20c-2.21 0-4 1.79-4 4v6H10v-6c0-2.21-1.79-4-4-4s-4 1.79-4 4v10c0 2.2 1.8 4 4 4h36c2.2 0 4-1.8 4-4V24c0-2.21-1.79-4-4-4zm-6-10H12c-2.2 0-4 1.8-4 4v4.31c2.32.83 4 3.03 4 5.63V28h24v-4.06c0-2.6 1.68-4.8 4-5.63V14c0-2.2-1.8-4-4-4z" fill="#010101"/></svg>